<?xml version="1.0" encoding="utf-8"?>
<!-- Generator: Adobe Illustrator 24.3.0, SVG Export Plug-In . SVG Version: 6.00 Build 0)  -->
<svg version="1.1" id="Слой_1" xmlns="http://www.w3.org/2000/svg" xmlns:xlink="http://www.w3.org/1999/xlink" x="0px" y="0px"
	 viewBox="0 0 327.4 327.4" style="enable-background:new 0 0 327.4 327.4;" xml:space="preserve">
<style type="text/css">
	.st0{fill:#1C7ED6;}
	.st1{fill:#EDEDED;}
</style>
<g id="Слой_3__x28_копия_x29_">
	<circle class="st0" cx="163.7" cy="163.7" r="163.7"/>
	<g>
		<polygon class="st1" points="115.8,51 212.4,51 212.4,66.5 169.7,71.5 159.3,71.5 115.8,66.5 		"/>
		<polygon class="st1" points="115.8,261 160.2,256 171.5,256 212.4,261 212.4,276.5 115.8,276.5 		"/>
		<path class="st1" d="M145.2,171.5v-14.3c0-35.1,0-71.2-1-106.1H184c-0.8,34.6-1,70.5-1,105.7v14.7c0,33.3,0.2,71.5,1,105.1h-39.7
			C145.2,243.2,145.2,206.2,145.2,171.5z"/>
		<path class="st1" d="M94,240.5C94,240.5,94,240.4,94,240.5C94.1,240.5,94,240.5,94,240.5z"/>
	</g>
	<path class="st1" d="M274.1,175.1c-5.5,34.2-32.7,59.8-85.3,62.1v-17.5c25-3,40.5-20.2,44.6-44.6H274.1L274.1,175.1z"/>
	<path class="st1" d="M139.9,105.6c0-5.8-0.1-11.5-0.1-17.4c-55,2.5-84.4,32.8-86.2,69.7h40.7C95.5,127.6,110.9,108.4,139.9,105.6z"
		/>
	<path class="st1" d="M138.9,219.7v17.5c-52.7-2.4-79.8-27.8-85.3-62.1h40.7C98.2,199.3,113.8,216.6,138.9,219.7z"/>
	<path class="st1" d="M188.7,105.6c0-5.8,0.1-11.5,0.1-17.4c55,2.5,84.4,32.8,86.2,69.7h-40.7C233,127.6,217.6,108.4,188.7,105.6z"
		/>
</g>
</svg>
