<?xml version="1.0" encoding="utf-8"?>
<!-- Generator: Adobe Illustrator 24.3.0, SVG Export Plug-In . SVG Version: 6.00 Build 0)  -->
<svg version="1.1" id="Слой_1" xmlns="http://www.w3.org/2000/svg" xmlns:xlink="http://www.w3.org/1999/xlink" x="0px" y="0px" viewBox="0 0 512 512" style="enable-background:new 0 0 512 512;" xml:space="preserve">
	<style type="text/css">
	.st0{fill:#3b82f6;}
	.st1{fill:#FFFFFF;}
</style>
	<rect class="st0" width="512" height="512" />
	<g id="Слой_3__x28_копия_x29_">
		<g>
			<polygon class="st1" points="179.5,79.8 331.3,79.8 331.3,104 264.2,111.8 247.9,111.8 179.5,104 		" />
			<polygon class="st1" points="179.5,408.2 249.3,400.3 267,400.3 331.3,408.2 331.3,432.4 179.5,432.4 		" />
			<path class="st1" d="M225.7,268.2v-22.4c0-54.9,0-111.3-1.6-165.9h62.5c-1.3,54.1-1.6,110.3-1.6,165.3v23
			c0,52.1,0.3,111.8,1.6,164.4h-62.4C225.7,380.3,225.7,322.5,225.7,268.2z" />
			<path class="st1" d="M145.2,376.1C145.2,376.1,145.2,375.9,145.2,376.1C145.4,376.1,145.2,376.1,145.2,376.1z" />
		</g>
		<path class="st1" d="M428.2,273.8c-8.6,53.5-51.4,93.5-134,97.1v-27.4c39.3-4.7,63.6-31.6,70.1-69.7H428.2L428.2,273.8z" />
		<path class="st1" d="M217.4,165.1c0-9.1-0.2-18-0.2-27.2c-86.4,3.9-132.6,51.3-135.5,109h64C147.6,199.5,171.8,169.5,217.4,165.1z" />
		<path class="st1" d="M215.8,343.6v27.4c-82.8-3.8-125.4-43.5-134-97.1h64C151.8,311.7,176.4,338.7,215.8,343.6z" />
		<path class="st1" d="M294.1,165.1c0-9.1,0.2-18,0.2-27.2c86.4,3.9,132.6,51.3,135.5,109h-64C363.7,199.5,339.5,169.5,294.1,165.1z" />
	</g>
</svg>